<svg version="1.1" id="edit" xmlns="http://www.w3.org/2000/svg" xmlns:xlink="http://www.w3.org/1999/xlink" x="0px" y="0px"
	 viewBox="0 0 111.3 111.3" enable-background="new 0 0 111.3 111.3" xml:space="preserve">
<circle id="circulo" fill="#8B5A2B" cx="55.6" cy="55.7" r="54.9" >
    <animate attributeName="r" from="54.9" to="0" dur="1s" begin="mouseover" fill="remove" />
</circle>
<circle id="fondo" fill="#ffff" cx="55.6" cy="55.7" r="38" />
<g id="Lapiz">
	<path fill="#8B5A2B" d="M79.6,40.3H31.7c-0.3,0-0.6-0.2-0.6-0.6v-1.9c0-0.3,0.2-0.6,0.6-0.6h47.9c0.3,0,0.6,0.2,0.6,0.6v1.9
		C80.2,40.1,79.9,40.3,79.6,40.3z"/>
	<path fill="#8B5A2B" d="M79.6,52.9H31.7c-0.3,0-0.6-0.2-0.6-0.6v-1.9c0-0.3,0.2-0.6,0.6-0.6h47.9c0.3,0,0.6,0.2,0.6,0.6v1.9
		C80.2,52.7,79.9,52.9,79.6,52.9z"/>
	<path fill="#8B5A2B" d="M79.6,65.3H31.7c-0.3,0-0.6-0.2-0.6-0.6v-1.9c0-0.3,0.2-0.6,0.6-0.6h47.9c0.3,0,0.6,0.2,0.6,0.6v1.9
		C80.2,65,79.9,65.3,79.6,65.3z"/>
	<g>
		<path fill="#8B5A2B" d="M97.7,25L86.8,14.1c-1.9-1.9-5-1.9-7,0L42.3,51.6c-0.8,0.8-0.7,0.8-0.7,0.8l0.3,0.1
			c-0.1,0.4-0.2,0.8-0.2,1.2c0,2.4,1.9,4.3,4.3,4.3c0.6,0,1.2-0.1,1.8-0.4c-0.1,0.4-0.2,0.9-0.2,1.4c0,2.9,2.4,5.3,5.3,5.3
			c0.5,0,0.9-0.1,1.4-0.2c-0.2,0.5-0.4,1.1-0.4,1.8c0,2.4,1.9,4.3,4.3,4.3c0.3,0,0.6,0,0.9-0.1l0.1,0.2c0.4-0.2,0.8-0.5,1.1-0.8
			l37.5-37.5C99.6,30,99.6,26.9,97.7,25z"/>
	</g>
	<path fill="#8B5A2B" d="M93,36.6l4.7-4.7c1.9-1.9,1.9-5,0-7L86.8,14.1c-1.9-1.9-5-1.9-7,0l-4.7,4.7L93,36.6z"/>
	<path fill="#ECD1AF" d="M58.1,70.2c-2.4,0-4.3-1.9-4.3-4.3c0-0.6,0.1-1.2,0.4-1.8c-0.4,0.1-0.9,0.2-1.4,0.2c-2.9,0-5.3-2.4-5.3-5.3
		c0-0.5,0.1-0.9,0.2-1.4c-0.5,0.2-1.1,0.4-1.8,0.4c-2.4,0-4.3-1.9-4.3-4.3c0-0.4,0.1-0.8,0.2-1.2l-0.3-0.1L32.5,78c0,0-0.5,1,0,1.5
		c0.5,0.5,2-0.2,2-0.2l24.6-9L59,70.1C58.7,70.1,58.4,70.2,58.1,70.2z"/>
	<path fill="#273544" d="M34.5,72.5l-2,5.5c0,0-0.5,1,0,1.5s2-0.2,2-0.2l4.8-1.9L34.5,72.5z"/>
	
		<rect x="69.7" y="27" transform="matrix(0.7071 0.7071 -0.7071 0.7071 44.9418 -49.5551)" fill="#EEF0D4" width="25.2" height="5"/>
	
		<rect x="69.7" y="28.2" transform="matrix(0.7071 0.7071 -0.7071 0.7071 44.9418 -49.5551)" opacity="0.2" fill="#BCBCBC" width="25.2" height="2.5"/>
	
		<rect x="72" y="26.4" transform="matrix(0.7071 0.7071 -0.7071 0.7071 43.9861 -51.8622)" opacity="0.2" fill="#BCBCBC" width="25.2" height="1.6"/>
	<g opacity="0.15">
		<path d="M97.7,25l-2.1-2.1L54.3,64.1L32.5,79.5c0.5,0.5,2-0.2,2-0.2l24.6-9v0c0.4-0.2,0.8-0.5,1.1-0.8l37.5-37.5
			C99.6,30,99.6,26.9,97.7,25z M58.9,70.1C58.9,70.1,58.9,70.1,58.9,70.1C59,70.1,59,70.1,58.9,70.1l0.1,0.2L58.9,70.1z M58.5,70.1
			C58.5,70.1,58.5,70.1,58.5,70.1C58.5,70.1,58.5,70.1,58.5,70.1z"/>
	</g>
	<polygon opacity="0.1" points="89.1,16.4 47.8,57.7 32.5,79.5 32.5,79.5 32.5,79.5 54.3,64.1 95.5,22.8 	"/>
</g>
</svg>
