<svg width="116" height="141" viewBox="0 0 116 141" fill="none" xmlns="http://www.w3.org/2000/svg">
<path d="M101.5 97.6154V61.4615C101.5 39.2631 89.61 20.68 68.875 15.7631V10.8462C68.875 4.84462 64.0175 0 58 0C51.9825 0 47.125 4.84462 47.125 10.8462V15.7631C26.3175 20.68 14.5 39.1908 14.5 61.4615V97.6154L0 112.077V119.308H116V112.077L101.5 97.6154ZM65.25 97.6154H50.75V83.1538H65.25V97.6154ZM65.25 68.6923H50.75V39.7692H65.25V68.6923ZM58 141C65.975 141 72.5 134.492 72.5 126.538H43.5C43.5 134.492 49.9525 141 58 141Z" fill="black"/>
</svg>
